<mxfile host="app.diagrams.net" modified="2024-06-06T17:44:12.350Z" agent="Mozilla/5.0 (Macintosh; Intel Mac OS X 10_15_7) AppleWebKit/537.36 (KHTML, like Gecko) Chrome/124.0.0.0 Safari/537.36" etag="Kv7Y88H8D2ZkLQBZOh_B" version="24.5.1" type="github">
  <diagram name="Page-1" id="RZs-bzBAcImtlLFZd4Uj">
    <mxGraphModel dx="2358" dy="1303" grid="1" gridSize="10" guides="1" tooltips="1" connect="1" arrows="1" fold="1" page="1" pageScale="1" pageWidth="850" pageHeight="1100" math="0" shadow="0">
      <root>
        <mxCell id="0" />
        <mxCell id="1" parent="0" />
      </root>
    </mxGraphModel>
  </diagram>
</mxfile>
